<svg xmlns="http://www.w3.org/2000/svg" viewBox="0 0 64 64">
  <rect width="64" height="64" rx="16" fill="#0b1720" />
  <circle cx="32" cy="32" r="20" fill="#09a7a3" />
  <circle cx="32" cy="32" r="9" fill="#f4efe6" />
  <path
    d="M32 12c2.4 0 4.3 1.9 4.3 4.3S34.4 22 32 22s-4.3-1.9-4.3-4.3S29.6 12 32 12Zm0 30c2.4 0 4.3 1.9 4.3 4.3S34.4 52 32 52s-4.3-1.9-4.3-4.3S29.6 42 32 42Zm20-10c0 2.4-1.9 4.3-4.3 4.3S43.4 34.4 43.4 32s1.9-4.3 4.3-4.3S52 29.6 52 32ZM20.6 32c0 2.4-1.9 4.3-4.3 4.3S12 34.4 12 32s1.9-4.3 4.3-4.3 4.3 1.9 4.3 4.3Z"
    fill="#f4efe6"
  />
</svg>
